<svg width="174" height="50" viewBox="0 0 174 50" fill="none" xmlns="http://www.w3.org/2000/svg">
<path d="M37.9614 0C38.8735 0 39.6108 0.736579 39.6108 1.64794V4.94382C39.6108 5.25593 39.5233 5.54307 39.3734 5.79276C41.4351 6.42946 43.072 8.05244 43.7093 10.1124C43.9592 9.96255 44.2466 9.87516 44.559 9.87516H47.8578C48.77 9.87516 49.5072 10.6117 49.5072 11.5231C49.5072 12.4345 48.77 13.171 47.8578 13.171H44.559C44.3716 13.171 44.1841 13.1336 44.0092 13.0712V18.7391C44.1841 18.6767 44.3716 18.6392 44.559 18.6392H47.8578C48.77 18.6392 49.5072 19.3758 49.5072 20.2871C49.5072 21.1985 48.77 21.9351 47.8578 21.9351H44.559C44.3716 21.9351 44.1841 21.8976 44.0092 21.8352V27.5031C44.1841 27.4407 44.3716 27.4032 44.559 27.4032H47.8578C48.77 27.4032 49.5072 28.1398 49.5072 29.0512C49.5072 29.9625 48.77 30.6991 47.8578 30.6991H44.559C44.3716 30.6991 44.1841 30.6617 44.0092 30.5993V36.2672C44.1841 36.2047 44.3716 36.1673 44.559 36.1673H47.8578C48.77 36.1673 49.5072 36.9039 49.5072 37.8152C49.5072 38.7266 48.77 39.4632 47.8578 39.4632H44.559C44.2466 39.4632 43.9592 39.3758 43.7093 39.226C43.072 41.2859 41.4351 42.9089 39.3734 43.5456C39.5233 43.7953 39.6108 44.0824 39.6108 44.3945V47.6904C39.6108 48.6018 38.8735 49.3383 37.9614 49.3383C37.0492 49.3383 36.312 48.6018 36.312 47.6904V44.3945C36.312 44.2072 36.3494 44.02 36.4119 43.8452H30.7265C30.7889 44.02 30.8264 44.2072 30.8264 44.3945V47.6904C30.8264 48.6018 30.0892 49.3383 29.177 49.3383C28.2648 49.3383 27.5276 48.6018 27.5276 47.6904V44.3945C27.5276 44.2072 27.5651 44.02 27.6276 43.8452H21.9421C22.0046 44.02 22.0421 44.2072 22.0421 44.3945V47.6904C22.0421 48.6018 21.3048 49.3383 20.3927 49.3383C19.4805 49.3383 18.7433 48.6018 18.7433 47.6904V44.3945C18.7433 44.2072 18.7808 44.02 18.8432 43.8452H13.1578C13.2203 44.02 13.2577 44.2072 13.2577 44.3945V47.6904C13.2577 48.6018 12.5205 49.3383 11.6083 49.3383C10.6962 49.3383 9.95892 48.6018 9.95892 47.6904V44.3945C9.95892 44.0824 10.0464 43.7953 10.1963 43.5456C8.13458 42.9089 6.49767 41.2859 5.8604 39.226C5.61048 39.3758 5.32309 39.4632 5.0107 39.4632H1.64941C0.737235 39.4757 0 38.7391 0 37.8277C0 36.9164 0.737235 36.1798 1.64941 36.1798H4.94822C5.13566 36.1798 5.32309 36.2172 5.49803 36.2797V30.6117C5.32309 30.6742 5.13566 30.7116 4.94822 30.7116H1.64941C0.737235 30.6991 0 29.9626 0 29.0637C0 28.1523 0.737235 27.4157 1.64941 27.4157H4.94822C5.13566 27.4157 5.32309 27.4532 5.49803 27.5156V21.8477C5.32309 21.9101 5.13566 21.9476 4.94822 21.9476H1.64941C0.737235 21.9351 0 21.1985 0 20.2871C0 19.3758 0.737235 18.6392 1.64941 18.6392H4.94822C5.13566 18.6392 5.32309 18.6767 5.49803 18.7391V13.0712C5.32309 13.1336 5.13566 13.171 4.94822 13.171H1.64941C0.737235 13.1586 0 12.422 0 11.5106C0 10.5993 0.737235 9.86267 1.64941 9.86267H4.94822C5.26061 9.86267 5.54801 9.95006 5.79792 10.0999C6.43519 8.03995 8.0721 6.41698 10.1339 5.78028C9.98391 5.53059 9.90894 5.24345 9.90894 4.93134V1.64794C9.90894 0.736579 10.6462 0 11.5583 0C12.4705 0 13.2078 0.736579 13.2078 1.64794V4.94382C13.2078 5.13109 13.1703 5.31835 13.1078 5.49313H18.7932C18.7433 5.30587 18.7058 5.13109 18.7058 4.93134V1.64794C18.7058 0.736579 19.443 0 20.3552 0C21.2674 0 22.0046 0.736579 22.0046 1.64794V4.94382C22.0046 5.13109 21.9671 5.31835 21.9046 5.49313H27.5901C27.5276 5.31835 27.4901 5.13109 27.4901 4.94382V1.64794C27.4901 0.736579 28.2274 0 29.1395 0C30.0517 0 30.7889 0.736579 30.7889 1.64794V4.94382C30.7889 5.13109 30.7515 5.31835 30.689 5.49313H36.3744C36.312 5.31835 36.2745 5.13109 36.2745 4.94382V1.64794C36.312 0.736579 37.0492 0 37.9614 0ZM36.312 8.77653H13.2078C10.8586 8.77653 8.93429 10.6117 8.80934 12.9213L8.79684 13.1586V36.1923C8.79684 38.5393 10.6337 40.4494 12.9578 40.5743L13.1953 40.5868H36.2995C38.6486 40.5868 40.5729 38.7516 40.6979 36.442L40.7104 36.2047V13.1586C40.7104 10.7366 38.7361 8.77653 36.312 8.77653ZM31.9135 10.9613L38.5112 17.5406V35.0812C38.5112 36.9039 37.0367 38.377 35.2124 38.377H14.3074C12.483 38.377 11.0085 36.9039 11.0085 35.0812V14.2572C11.0085 12.4345 12.483 10.9613 14.3074 10.9613H31.9135ZM149.246 14.0824C151.408 14.0824 153.245 14.6692 154.757 15.8302C156.256 16.9913 157.156 18.5144 157.431 20.387H153.52C153.232 19.4132 152.72 18.6642 151.97 18.1149C151.208 17.5655 150.309 17.2909 149.259 17.2909C147.722 17.2909 146.522 17.8402 145.648 18.9513C144.785 20.0624 144.348 21.598 144.348 23.5705C144.348 25.5805 144.798 27.1536 145.71 28.3146C146.61 29.4757 147.847 30.0499 149.396 30.0499C150.671 30.0499 151.708 29.7004 152.52 28.9888C153.32 28.2772 153.745 27.3533 153.782 26.2047L153.795 25.9051H149.746V23.0836H157.581V23.0961H163.941V23.4082L169.564 28.7266C169.876 28.6267 170.201 28.5768 170.539 28.5768C172.363 28.5768 173.838 30.0499 173.838 31.8602C173.838 33.6704 172.363 35.1436 170.539 35.1436C168.714 35.1436 167.24 33.6704 167.24 31.8602C167.24 31.1735 167.452 30.5368 167.815 30.0125L162.817 25.2809H157.581V25.593C157.506 27.9276 156.781 29.7628 155.407 31.1236C153.945 32.5593 151.92 33.2834 149.334 33.2834C146.547 33.2834 144.361 32.422 142.774 30.7116C141.174 29.0013 140.375 26.6417 140.375 23.633C140.375 20.6742 141.174 18.3396 142.761 16.6417C144.348 14.9313 146.51 14.0824 149.246 14.0824ZM28.3523 16.5293C26.428 16.5293 24.8786 17.216 23.704 18.5768C22.6044 19.8502 22.0171 21.4232 21.9421 23.3084L21.9296 23.7204V23.9326C21.9296 26.0175 22.5169 27.7278 23.704 29.0886C24.8911 30.4494 26.4405 31.1236 28.3648 31.1236C28.6147 31.1236 28.8771 31.1111 29.127 31.0737L29.5144 31.0237L29.9018 30.9488L33.313 33.2335L35.3248 31.6854L32.2884 29.8003C33.0881 29.1511 33.7129 28.3271 34.1627 27.3034C34.5626 26.392 34.775 25.4057 34.825 24.3321L34.8375 23.9201V23.7204C34.8375 21.6604 34.2377 19.9376 33.0381 18.5768C31.8386 17.216 30.2891 16.5293 28.3523 16.5293ZM60.5158 1.14856C61.9527 1.14856 63.1773 2.05993 63.6271 3.34582H66.0138V3.70787L66.3762 3.34582L69.3126 6.26717L68.9377 6.62921H69.3126V14.407H70.962L76.2476 27.5531H76.3476L81.6332 14.407H86.1441V32.9463H82.6703V20.437H82.5703L77.5097 32.7715H75.0605L69.9999 20.437H69.8999V32.9588H66.4261V14.407H67.0884V7.00375L65.5889 5.5181H63.6022C63.1523 6.804 61.9278 7.72784 60.4783 7.72784C58.6539 7.72784 57.1795 6.25468 57.1795 4.43196C57.2169 2.62172 58.6914 1.14856 60.5158 1.14856ZM104.562 5.54307C106.362 5.54307 107.824 7.01623 107.824 8.83895C107.824 10.6617 106.362 12.1223 104.562 12.1223C103.138 12.1223 101.926 11.211 101.476 9.92509H95.1783L93.6289 11.4732V15.4057H93.129V32.9463H89.2305V14.407H91.4422V11.0237H91.6296L91.3047 10.6991L94.3911 7.603L94.7035 7.91511V7.72784H101.451C101.938 6.45443 103.138 5.54307 104.562 5.54307ZM99.4893 14.407L108.186 26.4919H108.286V14.407H112.01V32.9463H108.786L100.077 20.799H99.9641V32.9463H96.2404V14.407H99.4893ZM118.995 14.407V32.9463H115.096V14.407H118.995ZM125.342 14.407L134.039 26.4919H134.139V14.407H137.863V32.9463H134.639L125.93 20.799H125.817V32.9463H122.094V14.407H125.342ZM170.551 30.7615C170.514 30.7615 170.476 30.7615 170.439 30.7615L169.527 31.623L169.477 31.573C169.452 31.6604 169.439 31.7603 169.439 31.8477C169.439 32.4594 169.926 32.9463 170.539 32.9463C171.151 32.9463 171.638 32.4594 171.638 31.8477C171.651 31.2484 171.164 30.7615 170.551 30.7615ZM20.7426 16.7291H14.8447V18.4395L16.3691 18.7266V28.9139L14.8447 29.201V30.9114H20.7426V29.2135L19.2181 28.9263V18.7391L20.7426 18.4519V16.7291ZM28.3523 18.7516C29.5519 18.7516 30.4516 19.2135 31.0763 20.1248C31.6386 20.9613 31.9385 22.035 31.9885 23.3333L32.001 23.6954V23.9326C32.001 25.4307 31.7011 26.6292 31.0888 27.5406C30.4766 28.4519 29.5769 28.9139 28.3648 28.9139C27.1777 28.9139 26.2781 28.4519 25.6783 27.5406C25.1285 26.7041 24.8411 25.618 24.7911 24.2946V23.9326V23.6954C24.7911 22.2097 25.091 21.0237 25.6783 20.1124C26.2656 19.201 27.1527 18.7516 28.3523 18.7516ZM104.562 7.72784C103.95 7.72784 103.463 8.21473 103.463 8.82647C103.463 9.42572 103.95 9.92509 104.562 9.92509C105.175 9.92509 105.662 9.4382 105.662 8.82647C105.662 8.22722 105.175 7.72784 104.562 7.72784ZM60.5158 3.34582C59.9035 3.34582 59.4162 3.83271 59.4162 4.44444C59.4162 5.05618 59.9035 5.54307 60.5158 5.54307C61.128 5.54307 61.6154 5.05618 61.6154 4.44444C61.6154 3.83271 61.128 3.34582 60.5158 3.34582Z" fill="white"/>
<path d="M71.262 43.7329H72.3116V45.2186H71.262V47.2161H69.4252V45.2186H65.6265L65.5391 44.0575L69.4002 37.9526H71.262V43.7329V43.7329ZM67.3759 43.7329H69.4252V40.462L69.3002 40.6742L67.3759 43.7329Z" fill="white"/>
<path d="M79.1967 44.6193L80.4712 40.3372H82.4455L79.6715 48.2898L79.5216 48.6518C79.1092 49.5507 78.4344 50.0001 77.4848 50.0001C77.2224 50.0001 76.9475 49.9627 76.6726 49.8753V48.477H76.9475C77.2974 48.477 77.5598 48.4271 77.7222 48.3147C77.8971 48.2148 78.0346 48.0276 78.1221 47.7904L78.3345 47.2286L75.9229 40.3247H77.8971L79.1967 44.6193Z" fill="white"/>
<path d="M86.2567 47.3534C85.2446 47.3534 84.4199 47.0413 83.7951 46.4296C83.1578 45.8054 82.8455 44.9814 82.8455 43.9577V43.7829C82.8455 43.0963 82.9829 42.472 83.2453 41.9227C83.5077 41.3734 83.8951 40.9614 84.3824 40.6618C84.8697 40.3622 85.432 40.2249 86.0568 40.2249C86.994 40.2249 87.7437 40.5245 88.281 41.1112C88.8183 41.7105 89.0932 42.5469 89.0932 43.6331V44.3822H84.7073C84.7698 44.8316 84.9447 45.1936 85.2446 45.4683C85.5445 45.743 85.9193 45.8803 86.3817 45.8803C87.0939 45.8803 87.6437 45.6181 88.0436 45.1063L88.9433 46.1175C88.6684 46.5045 88.2935 46.8166 87.8187 47.0288C87.3438 47.2411 86.8315 47.3534 86.2567 47.3534ZM86.0568 41.698C85.6944 41.698 85.3945 41.8229 85.1696 42.0725C84.9447 42.3222 84.7948 42.6718 84.7323 43.1337H87.2939V42.9839C87.2814 42.5719 87.1689 42.2598 86.9565 42.0351C86.7441 41.8104 86.4442 41.698 86.0568 41.698Z" fill="white"/>
<path d="M94.1289 47.2286C94.0414 47.0663 93.979 46.854 93.9415 46.6168C93.4916 47.1162 92.9168 47.3659 92.2046 47.3659C91.5298 47.3659 90.9675 47.1661 90.5302 46.7791C90.0803 46.3921 89.8679 45.8927 89.8679 45.306C89.8679 44.5819 90.1428 44.0201 90.6801 43.6331C91.2174 43.246 92.0047 43.0463 93.0293 43.0463H93.879V42.6468C93.879 42.3347 93.7915 42.0725 93.6291 41.8852C93.4666 41.698 93.2042 41.5981 92.8543 41.5981C92.542 41.5981 92.3046 41.673 92.1296 41.8228C91.9547 41.9726 91.8672 42.1724 91.8672 42.4346H90.0304C90.0304 42.0351 90.1553 41.673 90.3927 41.3234C90.6426 40.9864 90.9925 40.7117 91.4424 40.5244C91.8922 40.3372 92.392 40.2373 92.9543 40.2373C93.804 40.2373 94.4788 40.4495 94.9786 40.874C95.4784 41.2985 95.7283 41.8977 95.7283 42.6718V45.6555C95.7283 46.3047 95.8283 46.8041 96.0032 47.1412V47.2535H94.1289V47.2286ZM92.6044 45.9427C92.8793 45.9427 93.1293 45.8803 93.3542 45.7679C93.5791 45.643 93.754 45.4808 93.8665 45.281V44.095H93.1792C92.2546 44.095 91.7672 44.4071 91.7048 45.0438L91.6923 45.1562C91.6923 45.3809 91.7672 45.5681 91.9297 45.718C92.1046 45.8678 92.3295 45.9427 92.6044 45.9427Z" fill="white"/>
<path d="M101.001 42.0601C100.751 42.0226 100.526 42.0101 100.339 42.0101C99.6393 42.0101 99.1894 42.2473 98.977 42.7217V47.2286H97.1401V40.3497H98.877L98.927 41.1737C99.3019 40.537 99.8142 40.2249 100.464 40.2249C100.664 40.2249 100.864 40.2498 101.039 40.3122L101.001 42.0601Z" fill="white"/>
<path d="M105.612 45.3183C105.612 45.0936 105.5 44.9188 105.275 44.7815C105.05 44.6566 104.7 44.5318 104.2 44.4319C102.563 44.0824 101.739 43.3957 101.739 42.347C101.739 41.7353 101.988 41.2234 102.501 40.8114C103.013 40.3995 103.675 40.1997 104.488 40.1997C105.362 40.1997 106.062 40.4119 106.587 40.8239C107.112 41.2359 107.374 41.7727 107.374 42.4219H105.537C105.537 42.1598 105.45 41.9475 105.287 41.7727C105.112 41.598 104.85 41.5106 104.488 41.5106C104.175 41.5106 103.938 41.5855 103.763 41.7228C103.588 41.8601 103.513 42.0349 103.513 42.2596C103.513 42.4594 103.613 42.6217 103.8 42.7465C103.988 42.8714 104.325 42.9837 104.775 43.0711C105.225 43.1585 105.625 43.2709 105.937 43.3832C106.912 43.7453 107.399 44.357 107.399 45.2309C107.399 45.8551 107.124 46.367 106.587 46.754C106.05 47.141 105.35 47.3408 104.5 47.3408C103.925 47.3408 103.413 47.2409 102.963 47.0287C102.513 46.8289 102.163 46.5418 101.913 46.1797C101.664 45.8177 101.526 45.4307 101.526 45.0187H103.275C103.288 45.3433 103.413 45.593 103.638 45.7677C103.863 45.9425 104.163 46.0299 104.538 46.0299C104.887 46.0299 105.162 45.9675 105.337 45.8302C105.525 45.7178 105.612 45.543 105.612 45.3183Z" fill="white"/>
<path d="M111.548 43.7205C111.548 43.0338 111.685 42.4346 111.947 41.8978C112.21 41.3609 112.585 40.9489 113.085 40.6618C113.584 40.3747 114.159 40.2249 114.809 40.2249C115.734 40.2249 116.496 40.512 117.083 41.0738C117.67 41.6481 117.995 42.4096 118.07 43.3834L118.083 43.8578C118.083 44.919 117.783 45.7554 117.196 46.4046C116.608 47.0413 115.809 47.3659 114.821 47.3659C113.834 47.3659 113.035 47.0538 112.447 46.4171C111.86 45.7804 111.56 44.919 111.56 43.8204V43.7205H111.548ZM113.384 43.8453C113.384 44.4945 113.509 44.9939 113.759 45.3435C114.009 45.693 114.359 45.8678 114.821 45.8678C115.271 45.8678 115.609 45.693 115.859 45.3559C116.108 45.0189 116.233 44.4695 116.233 43.7205C116.233 43.0838 116.108 42.5844 115.859 42.2348C115.609 41.8853 115.259 41.7105 114.796 41.7105C114.347 41.7105 113.997 41.8853 113.759 42.2348C113.509 42.5719 113.384 43.1212 113.384 43.8453Z" fill="white"/>
<path d="M119.707 47.2285V41.6979H118.682V40.3496H119.707V39.7628C119.707 38.9888 119.932 38.3895 120.369 37.9651C120.807 37.5406 121.431 37.3284 122.231 37.3284C122.481 37.3284 122.793 37.3658 123.168 37.4532L123.143 38.8764C122.993 38.839 122.806 38.814 122.581 38.814C121.894 38.814 121.544 39.1386 121.544 39.7878V40.3371H122.906V41.6854H121.544V47.216H119.707V47.2285Z" fill="white"/>
<path d="M130.853 45.3183C130.853 45.0936 130.741 44.9188 130.516 44.7815C130.291 44.6566 129.941 44.5318 129.441 44.4319C127.804 44.0824 126.98 43.3957 126.98 42.347C126.98 41.7353 127.229 41.2234 127.742 40.8114C128.254 40.3995 128.916 40.1997 129.729 40.1997C130.603 40.1997 131.303 40.4119 131.828 40.8239C132.353 41.2359 132.615 41.7727 132.615 42.4219H130.778C130.778 42.1598 130.691 41.9475 130.528 41.7727C130.353 41.598 130.091 41.5106 129.729 41.5106C129.416 41.5106 129.179 41.5855 129.004 41.7228C128.829 41.8601 128.754 42.0349 128.754 42.2596C128.754 42.4594 128.854 42.6217 129.041 42.7465C129.229 42.8714 129.566 42.9837 130.016 43.0711C130.466 43.1585 130.866 43.2709 131.178 43.3832C132.153 43.7453 132.64 44.357 132.64 45.2309C132.64 45.8551 132.365 46.367 131.828 46.754C131.29 47.141 130.591 47.3408 129.741 47.3408C129.166 47.3408 128.654 47.2409 128.204 47.0287C127.754 46.8289 127.404 46.5418 127.154 46.1797C126.905 45.8177 126.767 45.4307 126.767 45.0187H128.516C128.529 45.3433 128.654 45.593 128.879 45.7677C129.104 45.9425 129.404 46.0299 129.779 46.0299C130.128 46.0299 130.403 45.9675 130.578 45.8302C130.766 45.7178 130.853 45.543 130.853 45.3183Z" fill="white"/>
<path d="M137.963 46.5294C137.513 47.0787 136.876 47.3534 136.076 47.3534C135.339 47.3534 134.777 47.1411 134.389 46.7166C134.002 46.2922 133.802 45.668 133.79 44.8565V40.3496H135.626V44.8065C135.626 45.5181 135.951 45.8802 136.614 45.8802C137.238 45.8802 137.663 45.668 137.901 45.231V40.3496H139.75V47.2285H138.013L137.963 46.5294Z" fill="white"/>
<path d="M143.998 45.8676C144.336 45.8676 144.611 45.7677 144.823 45.5929C145.035 45.4182 145.148 45.156 145.148 44.8439H146.872C146.872 45.3058 146.735 45.7428 146.485 46.1298C146.235 46.5168 145.898 46.8164 145.46 47.0286C145.023 47.2409 144.548 47.3532 144.023 47.3532C143.036 47.3532 142.261 47.0411 141.687 46.4169C141.112 45.7927 140.837 44.9313 140.837 43.8201V43.6953C140.837 42.6341 141.124 41.7852 141.687 41.161C142.249 40.5368 143.024 40.2122 144.011 40.2122C144.873 40.2122 145.56 40.4618 146.085 40.9487C146.61 41.4356 146.872 42.0973 146.872 42.9088H145.148C145.135 42.5467 145.035 42.2596 144.823 42.0349C144.611 41.8102 144.336 41.6978 143.986 41.6978C143.561 41.6978 143.236 41.8476 143.011 42.1722C142.786 42.4843 142.686 42.9962 142.686 43.6953V43.8826C142.686 44.5942 142.799 45.106 143.011 45.4057C143.224 45.7178 143.548 45.8676 143.998 45.8676Z" fill="white"/>
<path d="M150.796 45.8676C151.133 45.8676 151.408 45.7677 151.621 45.5929C151.833 45.4057 151.946 45.156 151.958 44.8439H153.683C153.683 45.3058 153.545 45.7428 153.295 46.1298C153.045 46.5168 152.708 46.8164 152.271 47.0286C151.833 47.2409 151.358 47.3532 150.834 47.3532C149.846 47.3532 149.072 47.0411 148.509 46.4169C147.947 45.7927 147.66 44.9313 147.66 43.8201V43.6953C147.66 42.6341 147.947 41.7852 148.509 41.161C149.072 40.5243 149.846 40.2122 150.834 40.2122C151.696 40.2122 152.383 40.4618 152.908 40.9487C153.433 41.4356 153.695 42.0973 153.695 42.9088H151.971C151.958 42.5467 151.846 42.2596 151.633 42.0349C151.421 41.8102 151.146 41.6978 150.796 41.6978C150.371 41.6978 150.046 41.8476 149.821 42.1722C149.596 42.4968 149.497 42.9962 149.497 43.6953V43.8826C149.497 44.5942 149.609 45.106 149.821 45.4057C150.021 45.7178 150.346 45.8676 150.796 45.8676Z" fill="white"/>
<path d="M157.893 47.3534C156.881 47.3534 156.057 47.0413 155.432 46.4296C154.795 45.8054 154.482 44.9814 154.482 43.9577V43.7829C154.482 43.0963 154.62 42.472 154.882 41.9227C155.144 41.3734 155.532 40.9614 156.019 40.6618C156.506 40.3622 157.069 40.2249 157.694 40.2249C158.631 40.2249 159.38 40.5245 159.918 41.1112C160.455 41.7105 160.73 42.5469 160.73 43.6331V44.3822H156.344C156.407 44.8316 156.581 45.1936 156.881 45.4683C157.181 45.743 157.556 45.8803 158.018 45.8803C158.731 45.8803 159.28 45.6181 159.68 45.1063L160.58 46.1175C160.305 46.5045 159.93 46.8166 159.455 47.0288C158.981 47.2411 158.468 47.3534 157.893 47.3534ZM157.694 41.698C157.331 41.698 157.031 41.8229 156.806 42.0725C156.581 42.3222 156.431 42.6718 156.369 43.1337H158.931V42.9839C158.918 42.5719 158.806 42.2598 158.593 42.0351C158.381 41.8104 158.081 41.698 157.694 41.698Z" fill="white"/>
<path d="M165.503 45.3183C165.503 45.0936 165.391 44.9188 165.166 44.7815C164.941 44.6566 164.591 44.5318 164.091 44.4319C162.454 44.0824 161.629 43.3957 161.629 42.347C161.629 41.7353 161.879 41.2234 162.392 40.8114C162.904 40.3995 163.566 40.1997 164.378 40.1997C165.253 40.1997 165.953 40.4119 166.478 40.8239C167.002 41.2359 167.265 41.7727 167.265 42.4219H165.428C165.428 42.1598 165.341 41.9475 165.178 41.7727C165.003 41.598 164.741 41.5106 164.378 41.5106C164.066 41.5106 163.829 41.5855 163.654 41.7228C163.479 41.8601 163.404 42.0349 163.404 42.2596C163.404 42.4594 163.504 42.6217 163.691 42.7465C163.879 42.8714 164.216 42.9837 164.666 43.0711C165.116 43.1585 165.516 43.2709 165.828 43.3832C166.803 43.7453 167.29 44.357 167.29 45.2309C167.29 45.8551 167.015 46.367 166.478 46.754C165.94 47.141 165.241 47.3408 164.391 47.3408C163.816 47.3408 163.304 47.2409 162.854 47.0287C162.404 46.8289 162.054 46.5418 161.804 46.1797C161.554 45.8177 161.417 45.4307 161.417 45.0187H163.166C163.179 45.3433 163.304 45.593 163.529 45.7677C163.754 45.9425 164.054 46.0299 164.428 46.0299C164.778 46.0299 165.053 45.9675 165.228 45.8302C165.416 45.7178 165.503 45.543 165.503 45.3183Z" fill="white"/>
<path d="M172.213 45.3183C172.213 45.0936 172.101 44.9188 171.876 44.7815C171.651 44.6566 171.301 44.5318 170.801 44.4319C169.164 44.0824 168.34 43.3957 168.34 42.347C168.34 41.7353 168.59 41.2234 169.102 40.8114C169.614 40.3995 170.276 40.1997 171.089 40.1997C171.963 40.1997 172.663 40.4119 173.188 40.8239C173.713 41.2359 173.975 41.7727 173.975 42.4219H172.138C172.138 42.1598 172.051 41.9475 171.888 41.7727C171.713 41.598 171.451 41.5106 171.089 41.5106C170.776 41.5106 170.539 41.5855 170.364 41.7228C170.189 41.8601 170.114 42.0349 170.114 42.2596C170.114 42.4594 170.214 42.6217 170.401 42.7465C170.589 42.8714 170.926 42.9837 171.376 43.0711C171.826 43.1585 172.226 43.2709 172.538 43.3832C173.513 43.7453 174 44.357 174 45.2309C174 45.8551 173.725 46.367 173.188 46.754C172.651 47.141 171.951 47.3408 171.101 47.3408C170.526 47.3408 170.014 47.2409 169.564 47.0287C169.114 46.8289 168.764 46.5418 168.515 46.1797C168.265 45.8177 168.127 45.4307 168.127 45.0187H169.877C169.889 45.3433 170.014 45.593 170.239 45.7677C170.464 45.9425 170.764 46.0299 171.139 46.0299C171.488 46.0299 171.763 45.9675 171.938 45.8302C172.126 45.7178 172.213 45.543 172.213 45.3183Z" fill="white"/>
</svg>